<svg width="48" height="48" viewBox="0 0 48 48" fill="none" xmlns="http://www.w3.org/2000/svg">
<g clip-path="url(#clip0_864_4423)">
<path d="M17 47.032H3C2.46957 47.032 1.96086 46.8213 1.58579 46.4462C1.21071 46.0712 1 45.5624 1 45.032V3.03201C1 2.50158 1.21071 1.99287 1.58579 1.6178C1.96086 1.24273 2.46957 1.03201 3 1.03201H29.6C30.1252 1.03529 30.6281 1.24506 31 1.61601L38.414 9.03201C38.7891 9.407 38.9999 9.91562 39 10.446V17.032" stroke="black" stroke-width="2" stroke-linecap="round" stroke-linejoin="round"/>
<path d="M9 27.85L14.908 21.942C15.1906 21.6599 15.5621 21.4843 15.9595 21.445C16.3568 21.4056 16.7555 21.5049 17.088 21.726L19.874 23.584C20.2143 23.8106 20.6238 23.9092 21.0299 23.8623C21.436 23.8154 21.8123 23.6261 22.092 23.328L27.568 17.486" stroke="black" stroke-width="2" stroke-linecap="round" stroke-linejoin="round"/>
<path d="M9.00806 13.032V33.032H19.0081" stroke="black" stroke-width="2" stroke-linecap="round" stroke-linejoin="round"/>
<path d="M45.7681 30.27L30.5081 45.532L23.0081 47.032L24.5081 39.532L39.7681 24.27C40.5617 23.4766 41.6379 23.0309 42.7601 23.0309C43.8822 23.0309 44.9584 23.4766 45.7521 24.27L45.7681 24.288C46.5613 25.0813 47.0069 26.1572 47.0069 27.279C47.0069 28.4008 46.5613 29.4767 45.7681 30.27Z" stroke="black" stroke-width="2" stroke-linecap="round" stroke-linejoin="round"/>
</g>
<defs>
<clipPath id="clip0_864_4423">
<rect width="48" height="48" fill="white"/>
</clipPath>
</defs>
</svg>
