<svg width="48" height="48" viewBox="0 0 48 48" fill="none" xmlns="http://www.w3.org/2000/svg">
<g clip-path="url(#clip0_864_4691)">
<path d="M15.508 23H9.508" stroke="black" stroke-width="2" stroke-linecap="round" stroke-linejoin="round"/>
<path d="M18.508 12C18.4632 10.4229 17.8166 8.92265 16.701 7.807C15.5853 6.69135 14.0851 6.04482 12.508 6C10.9309 6.04482 9.43065 6.69135 8.315 7.807C7.19935 8.92265 6.55282 10.4229 6.508 12C6.53051 13.0222 6.81902 14.021 7.34508 14.8977C7.87115 15.7745 8.61661 16.4991 9.508 17V19H15.508V17C16.3991 16.4988 17.1444 15.7741 17.6704 14.8974C18.1964 14.0207 18.4851 13.0222 18.508 12Z" stroke="black" stroke-width="2" stroke-linecap="round" stroke-linejoin="round"/>
<path d="M12.508 1V3" stroke="black" stroke-width="2" stroke-linecap="round" stroke-linejoin="round"/>
<path d="M20.286 4.22198L18.872 5.63598" stroke="black" stroke-width="2" stroke-linecap="round" stroke-linejoin="round"/>
<path d="M23.508 11H21.508" stroke="black" stroke-width="2" stroke-linecap="round" stroke-linejoin="round"/>
<path d="M4.72998 4.22198L6.14398 5.63598" stroke="black" stroke-width="2" stroke-linecap="round" stroke-linejoin="round"/>
<path d="M1.508 11H3.508" stroke="black" stroke-width="2" stroke-linecap="round" stroke-linejoin="round"/>
<path d="M26.52 5.23798C30.9803 5.95411 35.0395 8.23602 37.9695 11.6744C40.8995 15.1127 42.5086 19.4826 42.508 24" stroke="black" stroke-width="2" stroke-linecap="round" stroke-linejoin="round"/>
<path d="M20.512 42.766C16.0488 42.0523 11.9863 39.771 9.05378 36.3315C6.1213 32.8921 4.51099 28.5199 4.51202 24" stroke="black" stroke-width="2" stroke-linecap="round" stroke-linejoin="round"/>
<path d="M26.508 37C26.508 38.3132 26.7667 39.6136 27.2692 40.8268C27.7717 42.0401 28.5083 43.1425 29.4369 44.0711C30.3655 44.9997 31.4679 45.7362 32.6812 46.2388C33.8944 46.7413 35.1948 47 36.508 47C37.8212 47 39.1216 46.7413 40.3348 46.2388C41.5481 45.7362 42.6505 44.9997 43.5791 44.0711C44.5076 43.1425 45.2442 42.0401 45.7468 40.8268C46.2493 39.6136 46.508 38.3132 46.508 37C46.508 35.6868 46.2493 34.3864 45.7468 33.1732C45.2442 31.9599 44.5076 30.8575 43.5791 29.9289C42.6505 29.0003 41.5481 28.2638 40.3348 27.7612C39.1216 27.2587 37.8212 27 36.508 27C35.1948 27 33.8944 27.2587 32.6812 27.7612C31.4679 28.2638 30.3655 29.0003 29.4369 29.9289C28.5083 30.8575 27.7717 31.9599 27.2692 33.1732C26.7667 34.3864 26.508 35.6868 26.508 37Z" stroke="black" stroke-width="2" stroke-linecap="round" stroke-linejoin="round"/>
<path d="M36.508 41V43" stroke="black" stroke-width="2" stroke-linecap="round" stroke-linejoin="round"/>
<path d="M36.508 31V33" stroke="black" stroke-width="2" stroke-linecap="round" stroke-linejoin="round"/>
<path d="M32.508 41H38.508C39.0384 41 39.5471 40.7893 39.9222 40.4142C40.2973 40.0391 40.508 39.5304 40.508 39C40.508 38.4696 40.2973 37.9609 39.9222 37.5858C39.5471 37.2107 39.0384 37 38.508 37H34.508C33.9776 37 33.4689 36.7893 33.0938 36.4142C32.7187 36.0391 32.508 35.5304 32.508 35C32.508 34.4696 32.7187 33.9609 33.0938 33.5858C33.4689 33.2107 33.9776 33 34.508 33H40.508" stroke="black" stroke-width="2" stroke-linecap="round" stroke-linejoin="round"/>
<path d="M18.508 37L21.508 43L16.508 46" stroke="black" stroke-width="2" stroke-linecap="round" stroke-linejoin="round"/>
<path d="M28.508 10L26.508 5L30.508 2" stroke="black" stroke-width="2" stroke-linecap="round" stroke-linejoin="round"/>
</g>
<defs>
<clipPath id="clip0_864_4691">
<rect width="48" height="48" fill="white"/>
</clipPath>
</defs>
</svg>
