<svg width="48" height="48" viewBox="0 0 48 48" fill="none" xmlns="http://www.w3.org/2000/svg">
<g clip-path="url(#clip0_864_4861)">
<path d="M10 24V30" stroke="black" stroke-width="2" stroke-linecap="round" stroke-linejoin="round"/>
<path d="M14 47L15 37H19V29C19 26.6131 18.0518 24.3239 16.364 22.636C14.6761 20.9482 12.3869 20 10 20C7.61305 20 5.32387 20.9482 3.63604 22.636C1.94821 24.3239 1 26.6131 1 29V37H5L6 47" stroke="black" stroke-width="2" stroke-linecap="round" stroke-linejoin="round"/>
<path d="M4.85999 8C5.79085 8.94967 6.90178 9.70415 8.12777 10.2193C9.35376 10.7344 10.6702 10.9998 12 11C13.3755 11.0047 14.7372 10.7255 16 10.18" stroke="black" stroke-width="2" stroke-linecap="round" stroke-linejoin="round"/>
<path d="M4.04004 11C4.04004 12.5913 4.67007 14.1174 5.79154 15.2426C6.91301 16.3679 8.43404 17 10.02 17C11.606 17 13.1271 16.3679 14.2485 15.2426C15.37 14.1174 16 12.5913 16 11C16 9.4087 15.37 7.88258 14.2485 6.75736C13.1271 5.63214 11.606 5 10.02 5C8.43404 5 6.91301 5.63214 5.79154 6.75736C4.67007 7.88258 4.04004 9.4087 4.04004 11Z" stroke="black" stroke-width="2" stroke-linecap="round" stroke-linejoin="round"/>
<path d="M16 1H45C45.5304 1 46.0391 1.21071 46.4142 1.58579C46.7893 1.96086 47 2.46957 47 3V23C47 23.5304 46.7893 24.0391 46.4142 24.4142C46.0391 24.7893 45.5304 25 45 25H24" stroke="black" stroke-width="2" stroke-linecap="round" stroke-linejoin="round"/>
<path d="M29 25V37" stroke="black" stroke-width="2" stroke-linecap="round" stroke-linejoin="round"/>
<path d="M25 37H33" stroke="black" stroke-width="2" stroke-linecap="round" stroke-linejoin="round"/>
<path d="M22 15L28 9L31 12L38 5" stroke="black" stroke-width="2" stroke-linecap="round" stroke-linejoin="round"/>
<path d="M33 5H38V10" stroke="black" stroke-width="2" stroke-linecap="round" stroke-linejoin="round"/>
<path d="M35 17H39" stroke="black" stroke-width="2" stroke-linecap="round" stroke-linejoin="round"/>
<path d="M35 21H41" stroke="black" stroke-width="2" stroke-linecap="round" stroke-linejoin="round"/>
</g>
<defs>
<clipPath id="clip0_864_4861">
<rect width="48" height="48" fill="white"/>
</clipPath>
</defs>
</svg>
