<svg xmlns="http://www.w3.org/2000/svg" style="display:none">
<symbol id="icon-data-file-edit" viewBox="0 0 48 48">

<g clip-path="url(#clip0_864_4423)">
<path d="M17 47.032H3C2.46957 47.032 1.96086 46.8213 1.58579 46.4462C1.21071 46.0712 1 45.5624 1 45.032V3.03201C1 2.50158 1.21071 1.99287 1.58579 1.6178C1.96086 1.24273 2.46957 1.03201 3 1.03201H29.6C30.1252 1.03529 30.6281 1.24506 31 1.61601L38.414 9.03201C38.7891 9.407 38.9999 9.91562 39 10.446V17.032" stroke="currentColor" stroke-width="2" stroke-linecap="round" stroke-linejoin="round"/>
<path d="M9 27.85L14.908 21.942C15.1906 21.6599 15.5621 21.4843 15.9595 21.445C16.3568 21.4056 16.7555 21.5049 17.088 21.726L19.874 23.584C20.2143 23.8106 20.6238 23.9092 21.0299 23.8623C21.436 23.8154 21.8123 23.6261 22.092 23.328L27.568 17.486" stroke="currentColor" stroke-width="2" stroke-linecap="round" stroke-linejoin="round"/>
<path d="M9.00806 13.032V33.032H19.0081" stroke="currentColor" stroke-width="2" stroke-linecap="round" stroke-linejoin="round"/>
<path d="M45.7681 30.27L30.5081 45.532L23.0081 47.032L24.5081 39.532L39.7681 24.27C40.5617 23.4766 41.6379 23.0309 42.7601 23.0309C43.8822 23.0309 44.9584 23.4766 45.7521 24.27L45.7681 24.288C46.5613 25.0813 47.0069 26.1572 47.0069 27.279C47.0069 28.4008 46.5613 29.4767 45.7681 30.27Z" stroke="currentColor" stroke-width="2" stroke-linecap="round" stroke-linejoin="round"/>
</g>
<defs>
<clipPath id="clip0_864_4423">
<rect width="48" height="48" fill="white"/>
</clipPath>
</defs>

</symbol>
<symbol id="icon-customer-relationship-management" viewBox="0 0 48 48">

<g clip-path="url(#clip0_864_4211)">
<path d="M1 34.24C1 34.9447 1.1388 35.6425 1.40846 36.2935C1.67813 36.9445 2.07339 37.5361 2.57167 38.0344C3.06994 38.5326 3.66149 38.9279 4.31252 39.1976C4.96355 39.4672 5.66133 39.606 6.366 39.606C7.07067 39.606 7.76845 39.4672 8.41948 39.1976C9.07051 38.9279 9.66206 38.5326 10.1603 38.0344C10.6586 37.5361 11.0539 36.9445 11.3235 36.2935C11.5932 35.6425 11.732 34.9447 11.732 34.24C11.732 33.5354 11.5932 32.8376 11.3235 32.1865C11.0539 31.5355 10.6586 30.944 10.1603 30.4457C9.66206 29.9474 9.07051 29.5522 8.41948 29.2825C7.76845 29.0128 7.07067 28.874 6.366 28.874C5.66133 28.874 4.96355 29.0128 4.31252 29.2825C3.66149 29.5522 3.06994 29.9474 2.57167 30.4457C2.07339 30.944 1.67813 31.5355 1.40846 32.1865C1.1388 32.8376 1 33.5354 1 34.24Z" stroke="currentColor" stroke-width="2" stroke-linecap="round" stroke-linejoin="round"/>
<path d="M14.83 46.728C14.2887 45.4603 13.4695 44.3305 12.4329 43.422C11.3963 42.5135 10.1688 41.8495 8.8411 41.4792C7.51341 41.1088 6.11946 41.0415 4.76226 41.2822C3.40507 41.5229 2.11931 42.0656 1 42.87" stroke="currentColor" stroke-width="2" stroke-linecap="round" stroke-linejoin="round"/>
<path d="M36.2679 34.24C36.2679 35.6632 36.8333 37.028 37.8396 38.0344C38.8459 39.0407 40.2108 39.606 41.6339 39.606C43.0571 39.606 44.422 39.0407 45.4283 38.0344C46.4346 37.028 46.9999 35.6632 46.9999 34.24C46.9999 32.8169 46.4346 31.452 45.4283 30.4457C44.422 29.4394 43.0571 28.874 41.6339 28.874C40.2108 28.874 38.8459 29.4394 37.8396 30.4457C36.8333 31.452 36.2679 32.8169 36.2679 34.24Z" stroke="currentColor" stroke-width="2" stroke-linecap="round" stroke-linejoin="round"/>
<path d="M33.17 46.728C33.7113 45.4603 34.5305 44.3305 35.5672 43.422C36.6038 42.5135 37.8313 41.8495 39.1589 41.4792C40.4866 41.1088 41.8806 41.0415 43.2378 41.2822C44.595 41.5229 45.8807 42.0656 47 42.87" stroke="currentColor" stroke-width="2" stroke-linecap="round" stroke-linejoin="round"/>
<path d="M17.1 32.706C17.1 34.536 17.8269 36.2911 19.1209 37.5851C20.4149 38.8791 22.17 39.606 24 39.606C25.83 39.606 27.585 38.8791 28.879 37.5851C30.173 36.2911 30.9 34.536 30.9 32.706C30.9 30.876 30.173 29.121 28.879 27.827C27.585 26.533 25.83 25.806 24 25.806C22.17 25.806 20.4149 26.533 19.1209 27.827C17.8269 29.121 17.1 30.876 17.1 32.706Z" stroke="currentColor" stroke-width="2" stroke-linecap="round" stroke-linejoin="round"/>
<path d="M33.17 46.728C32.0078 45.4513 30.5919 44.4313 29.0128 43.7334C27.4338 43.0354 25.7264 42.6749 24 42.6749C22.2735 42.6749 20.5661 43.0354 18.9871 43.7334C17.408 44.4313 15.9921 45.4513 14.83 46.728" stroke="currentColor" stroke-width="2" stroke-linecap="round" stroke-linejoin="round"/>
<path d="M25.084 1.93801L27.638 6.96401H31.986C32.2215 6.96497 32.4514 7.03515 32.6472 7.16582C32.8431 7.2965 32.9961 7.48189 33.0874 7.69892C33.1786 7.91594 33.204 8.15501 33.1604 8.38636C33.1168 8.61771 33.0061 8.83112 32.842 9.00001L28.842 12.93L31.054 18.01C31.1544 18.2429 31.1784 18.5016 31.1227 18.7489C31.0669 18.9963 30.9342 19.2196 30.7436 19.3869C30.553 19.5542 30.3143 19.6568 30.0618 19.68C29.8093 19.7032 29.5559 19.6458 29.338 19.516L24 16.51L18.654 19.51C18.4362 19.6398 18.1828 19.6972 17.9303 19.674C17.6778 19.6508 17.4391 19.5482 17.2485 19.3809C17.0579 19.2136 16.9252 18.9903 16.8694 18.7429C16.8136 18.4956 16.8377 18.2369 16.938 18.004L19.15 12.924L15.15 8.99401C14.9859 8.825 14.8752 8.61141 14.8316 8.37987C14.788 8.14834 14.8136 7.9091 14.9051 7.692C14.9966 7.47489 15.15 7.28952 15.3461 7.159C15.5422 7.02848 15.7724 6.95858 16.008 6.95801H20.354L22.916 1.93801C23.0178 1.73792 23.1729 1.56988 23.3642 1.45251C23.5555 1.33514 23.7756 1.27301 24 1.27301C24.2245 1.27301 24.4446 1.33514 24.6359 1.45251C24.8272 1.56988 24.9823 1.73792 25.084 1.93801Z" stroke="currentColor" stroke-width="2" stroke-linecap="round" stroke-linejoin="round"/>
<path d="M10.2 4.34C9.97509 4.33825 9.75419 4.39976 9.56252 4.51752C9.37085 4.63528 9.21614 4.80455 9.11604 5.006L6.56204 10.03H2.21604C1.98004 10.0302 1.74934 10.0999 1.55278 10.2306C1.35623 10.3612 1.20256 10.5469 1.11099 10.7644C1.01941 10.9819 0.994011 11.2216 1.03795 11.4534C1.0819 11.6853 1.19324 11.8991 1.35804 12.068L5.35004 16L3.13804 21.078C3.03767 21.3109 3.01365 21.5696 3.06942 21.8169C3.1252 22.0643 3.2579 22.2876 3.44849 22.4549C3.63908 22.6222 3.87776 22.7248 4.13028 22.748C4.3828 22.7711 4.63617 22.7138 4.85404 22.584L10.2 19.576L11.614 20.376" stroke="currentColor" stroke-width="2" stroke-linecap="round" stroke-linejoin="round"/>
<path d="M37.8 4.34C38.0249 4.33825 38.2458 4.39976 38.4375 4.51752C38.6292 4.63528 38.7839 4.80455 38.884 5.006L41.438 10.03H45.784C46.02 10.0302 46.2507 10.0999 46.4472 10.2306C46.6438 10.3612 46.7975 10.5469 46.889 10.7644C46.9806 10.9819 47.006 11.2216 46.9621 11.4534C46.9181 11.6853 46.8068 11.8991 46.642 12.068L42.65 16L44.862 21.082C44.9624 21.3149 44.9864 21.5736 44.9306 21.8209C44.8748 22.0683 44.7421 22.2916 44.5515 22.4589C44.3609 22.6262 44.1223 22.7288 43.8697 22.752C43.6172 22.7751 43.3639 22.7178 43.146 22.588L37.8 19.576L36.386 20.376" stroke="currentColor" stroke-width="2" stroke-linecap="round" stroke-linejoin="round"/>
<path d="M18.5179 28.528C20.1456 30.095 22.0999 31.2823 24.2407 32.0047C26.3815 32.727 28.6556 32.9665 30.8999 32.706" stroke="currentColor" stroke-width="2" stroke-linecap="round" stroke-linejoin="round"/>
<path d="M1.526 31.936C4.56139 33.7486 8.09299 34.5531 11.614 34.234" stroke="currentColor" stroke-width="2" stroke-linecap="round" stroke-linejoin="round"/>
<path d="M36.8 31.936C39.8353 33.749 43.367 34.5535 46.8881 34.234" stroke="currentColor" stroke-width="2" stroke-linecap="round" stroke-linejoin="round"/>
</g>
<defs>
<clipPath id="clip0_864_4211">
<rect width="48" height="48" fill="white"/>
</clipPath>
</defs>

</symbol>
<symbol id="icon-monetization-idea" viewBox="0 0 48 48">

<g clip-path="url(#clip0_864_4691)">
<path d="M15.508 23H9.508" stroke="currentColor" stroke-width="2" stroke-linecap="round" stroke-linejoin="round"/>
<path d="M18.508 12C18.4632 10.4229 17.8166 8.92265 16.701 7.807C15.5853 6.69135 14.0851 6.04482 12.508 6C10.9309 6.04482 9.43065 6.69135 8.315 7.807C7.19935 8.92265 6.55282 10.4229 6.508 12C6.53051 13.0222 6.81902 14.021 7.34508 14.8977C7.87115 15.7745 8.61661 16.4991 9.508 17V19H15.508V17C16.3991 16.4988 17.1444 15.7741 17.6704 14.8974C18.1964 14.0207 18.4851 13.0222 18.508 12Z" stroke="currentColor" stroke-width="2" stroke-linecap="round" stroke-linejoin="round"/>
<path d="M12.508 1V3" stroke="currentColor" stroke-width="2" stroke-linecap="round" stroke-linejoin="round"/>
<path d="M20.286 4.22198L18.872 5.63598" stroke="currentColor" stroke-width="2" stroke-linecap="round" stroke-linejoin="round"/>
<path d="M23.508 11H21.508" stroke="currentColor" stroke-width="2" stroke-linecap="round" stroke-linejoin="round"/>
<path d="M4.72998 4.22198L6.14398 5.63598" stroke="currentColor" stroke-width="2" stroke-linecap="round" stroke-linejoin="round"/>
<path d="M1.508 11H3.508" stroke="currentColor" stroke-width="2" stroke-linecap="round" stroke-linejoin="round"/>
<path d="M26.52 5.23798C30.9803 5.95411 35.0395 8.23602 37.9695 11.6744C40.8995 15.1127 42.5086 19.4826 42.508 24" stroke="currentColor" stroke-width="2" stroke-linecap="round" stroke-linejoin="round"/>
<path d="M20.512 42.766C16.0488 42.0523 11.9863 39.771 9.05378 36.3315C6.1213 32.8921 4.51099 28.5199 4.51202 24" stroke="currentColor" stroke-width="2" stroke-linecap="round" stroke-linejoin="round"/>
<path d="M26.508 37C26.508 38.3132 26.7667 39.6136 27.2692 40.8268C27.7717 42.0401 28.5083 43.1425 29.4369 44.0711C30.3655 44.9997 31.4679 45.7362 32.6812 46.2388C33.8944 46.7413 35.1948 47 36.508 47C37.8212 47 39.1216 46.7413 40.3348 46.2388C41.5481 45.7362 42.6505 44.9997 43.5791 44.0711C44.5076 43.1425 45.2442 42.0401 45.7468 40.8268C46.2493 39.6136 46.508 38.3132 46.508 37C46.508 35.6868 46.2493 34.3864 45.7468 33.1732C45.2442 31.9599 44.5076 30.8575 43.5791 29.9289C42.6505 29.0003 41.5481 28.2638 40.3348 27.7612C39.1216 27.2587 37.8212 27 36.508 27C35.1948 27 33.8944 27.2587 32.6812 27.7612C31.4679 28.2638 30.3655 29.0003 29.4369 29.9289C28.5083 30.8575 27.7717 31.9599 27.2692 33.1732C26.7667 34.3864 26.508 35.6868 26.508 37Z" stroke="currentColor" stroke-width="2" stroke-linecap="round" stroke-linejoin="round"/>
<path d="M36.508 41V43" stroke="currentColor" stroke-width="2" stroke-linecap="round" stroke-linejoin="round"/>
<path d="M36.508 31V33" stroke="currentColor" stroke-width="2" stroke-linecap="round" stroke-linejoin="round"/>
<path d="M32.508 41H38.508C39.0384 41 39.5471 40.7893 39.9222 40.4142C40.2973 40.0391 40.508 39.5304 40.508 39C40.508 38.4696 40.2973 37.9609 39.9222 37.5858C39.5471 37.2107 39.0384 37 38.508 37H34.508C33.9776 37 33.4689 36.7893 33.0938 36.4142C32.7187 36.0391 32.508 35.5304 32.508 35C32.508 34.4696 32.7187 33.9609 33.0938 33.5858C33.4689 33.2107 33.9776 33 34.508 33H40.508" stroke="currentColor" stroke-width="2" stroke-linecap="round" stroke-linejoin="round"/>
<path d="M18.508 37L21.508 43L16.508 46" stroke="currentColor" stroke-width="2" stroke-linecap="round" stroke-linejoin="round"/>
<path d="M28.508 10L26.508 5L30.508 2" stroke="currentColor" stroke-width="2" stroke-linecap="round" stroke-linejoin="round"/>
</g>
<defs>
<clipPath id="clip0_864_4691">
<rect width="48" height="48" fill="white"/>
</clipPath>
</defs>

</symbol>
<symbol id="icon-performance-user-graph" viewBox="0 0 48 48">

<g clip-path="url(#clip0_864_4861)">
<path d="M10 24V30" stroke="currentColor" stroke-width="2" stroke-linecap="round" stroke-linejoin="round"/>
<path d="M14 47L15 37H19V29C19 26.6131 18.0518 24.3239 16.364 22.636C14.6761 20.9482 12.3869 20 10 20C7.61305 20 5.32387 20.9482 3.63604 22.636C1.94821 24.3239 1 26.6131 1 29V37H5L6 47" stroke="currentColor" stroke-width="2" stroke-linecap="round" stroke-linejoin="round"/>
<path d="M4.85999 8C5.79085 8.94967 6.90178 9.70415 8.12777 10.2193C9.35376 10.7344 10.6702 10.9998 12 11C13.3755 11.0047 14.7372 10.7255 16 10.18" stroke="currentColor" stroke-width="2" stroke-linecap="round" stroke-linejoin="round"/>
<path d="M4.04004 11C4.04004 12.5913 4.67007 14.1174 5.79154 15.2426C6.91301 16.3679 8.43404 17 10.02 17C11.606 17 13.1271 16.3679 14.2485 15.2426C15.37 14.1174 16 12.5913 16 11C16 9.4087 15.37 7.88258 14.2485 6.75736C13.1271 5.63214 11.606 5 10.02 5C8.43404 5 6.91301 5.63214 5.79154 6.75736C4.67007 7.88258 4.04004 9.4087 4.04004 11Z" stroke="currentColor" stroke-width="2" stroke-linecap="round" stroke-linejoin="round"/>
<path d="M16 1H45C45.5304 1 46.0391 1.21071 46.4142 1.58579C46.7893 1.96086 47 2.46957 47 3V23C47 23.5304 46.7893 24.0391 46.4142 24.4142C46.0391 24.7893 45.5304 25 45 25H24" stroke="currentColor" stroke-width="2" stroke-linecap="round" stroke-linejoin="round"/>
<path d="M29 25V37" stroke="currentColor" stroke-width="2" stroke-linecap="round" stroke-linejoin="round"/>
<path d="M25 37H33" stroke="currentColor" stroke-width="2" stroke-linecap="round" stroke-linejoin="round"/>
<path d="M22 15L28 9L31 12L38 5" stroke="currentColor" stroke-width="2" stroke-linecap="round" stroke-linejoin="round"/>
<path d="M33 5H38V10" stroke="currentColor" stroke-width="2" stroke-linecap="round" stroke-linejoin="round"/>
<path d="M35 17H39" stroke="currentColor" stroke-width="2" stroke-linecap="round" stroke-linejoin="round"/>
<path d="M35 21H41" stroke="currentColor" stroke-width="2" stroke-linecap="round" stroke-linejoin="round"/>
</g>
<defs>
<clipPath id="clip0_864_4861">
<rect width="48" height="48" fill="white"/>
</clipPath>
</defs>

</symbol>
<symbol id="icon-pie-line-graph-desktop" viewBox="0 0 48 48">

<path d="M7 17C7 18.8565 7.7375 20.637 9.05025 21.9497C10.363 23.2625 12.1435 24 14 24C15.8565 24 17.637 23.2625 18.9497 21.9497C20.2625 20.637 21 18.8565 21 17C21 15.1435 20.2625 13.363 18.9497 12.0503C17.637 10.7375 15.8565 10 14 10C12.1435 10 10.363 10.7375 9.05025 12.0503C7.7375 13.363 7 15.1435 7 17Z" stroke="currentColor" stroke-width="2" stroke-linecap="round" stroke-linejoin="round"/>
<path d="M14 10V17H21" stroke="currentColor" stroke-width="2" stroke-linecap="round" stroke-linejoin="round"/>
<path d="M18 45C19.8116 42.7125 20.8608 39.9147 21 37" stroke="currentColor" stroke-width="2" stroke-linecap="round" stroke-linejoin="round"/>
<path d="M30 45C28.1884 42.7125 27.1392 39.9147 27 37" stroke="currentColor" stroke-width="2" stroke-linecap="round" stroke-linejoin="round"/>
<path d="M14.998 45H32.998" stroke="currentColor" stroke-width="2" stroke-linecap="round" stroke-linejoin="round"/>
<path d="M1 31H47" stroke="currentColor" stroke-width="2" stroke-linecap="round" stroke-linejoin="round"/>
<path d="M3 3H45C45 3 47 3 47 5V35C47 35 47 37 45 37H3C3 37 1 37 1 35V5C1 5 1 3 3 3Z" stroke="currentColor" stroke-width="2" stroke-linecap="round" stroke-linejoin="round"/>
<path d="M27 14L30 10L36 15L41 9" stroke="currentColor" stroke-width="2" stroke-linecap="round" stroke-linejoin="round"/>
<path d="M39 25V22" stroke="currentColor" stroke-width="2" stroke-linecap="round" stroke-linejoin="round"/>
<path d="M35 25V21" stroke="currentColor" stroke-width="2" stroke-linecap="round" stroke-linejoin="round"/>
<path d="M31 25V19" stroke="currentColor" stroke-width="2" stroke-linecap="round" stroke-linejoin="round"/>
<path d="M27 25V22" stroke="currentColor" stroke-width="2" stroke-linecap="round" stroke-linejoin="round"/>

</symbol>
<symbol id="icon-seo-search-graph-first-place" viewBox="0 0 48 48">

<g clip-path="url(#clip0_864_4375)">
<path d="M1 38.1807H21" stroke="currentColor" stroke-width="2" stroke-linecap="round" stroke-linejoin="round"/>
<path d="M7 38.1807H1V11.1807C1 10.9154 1.10536 10.6611 1.29289 10.4736C1.48043 10.286 1.73478 10.1807 2 10.1807H6C6.26522 10.1807 6.51957 10.286 6.70711 10.4736C6.89464 10.6611 7 10.9154 7 11.1807V38.1807Z" stroke="currentColor" stroke-width="2" stroke-linecap="round" stroke-linejoin="round"/>
<path d="M32 31.1807L35 29.1807V37.1807" stroke="currentColor" stroke-width="2" stroke-linecap="round" stroke-linejoin="round"/>
<path d="M1.20001 2.54004L2.38001 5.12004" stroke="currentColor" stroke-width="2" stroke-linecap="round" stroke-linejoin="round"/>
<path d="M7.88001 1.82001L6.82001 4.64001" stroke="currentColor" stroke-width="2" stroke-linecap="round" stroke-linejoin="round"/>
<path d="M12.44 6.73999L9.88 7.91999" stroke="currentColor" stroke-width="2" stroke-linecap="round" stroke-linejoin="round"/>
<path d="M25 33.6807C25 36.2002 26.0009 38.6166 27.7825 40.3982C29.5641 42.1798 31.9804 43.1807 34.5 43.1807C37.0196 43.1807 39.4359 42.1798 41.2175 40.3982C42.9991 38.6166 44 36.2002 44 33.6807C44 31.1611 42.9991 28.7447 41.2175 26.9632C39.4359 25.1816 37.0196 24.1807 34.5 24.1807C31.9804 24.1807 29.5641 25.1816 27.7825 26.9632C26.0009 28.7447 25 31.1611 25 33.6807Z" stroke="currentColor" stroke-width="2" stroke-linecap="round" stroke-linejoin="round"/>
<path d="M47 46.1807L41.22 40.3807" stroke="currentColor" stroke-width="2" stroke-linecap="round" stroke-linejoin="round"/>
<path d="M33 37.1807H37" stroke="currentColor" stroke-width="2" stroke-linecap="round" stroke-linejoin="round"/>
<path d="M17 38.1807H11V16.1807C11 15.9154 11.1054 15.6611 11.2929 15.4736C11.4804 15.286 11.7348 15.1807 12 15.1807H16C16.2652 15.1807 16.5196 15.286 16.7071 15.4736C16.8946 15.6611 17 15.9154 17 16.1807V38.1807Z" stroke="currentColor" stroke-width="2" stroke-linecap="round" stroke-linejoin="round"/>
<path d="M21 38.1807V21.1807C21 20.9154 21.1054 20.6611 21.2929 20.4736C21.4804 20.286 21.7348 20.1807 22 20.1807H26C26.2652 20.1807 26.5196 20.286 26.7071 20.4736C26.8946 20.6611 27 20.9154 27 21.1807V22.1807" stroke="currentColor" stroke-width="2" stroke-linecap="round" stroke-linejoin="round"/>
</g>
<defs>
<clipPath id="clip0_864_4375">
<rect width="48" height="48" fill="white"/>
</clipPath>
</defs>

</symbol>
</svg>