<svg xmlns="http://www.w3.org/2000/svg" style="display:none">
<symbol id="icon-facebook" viewBox="0 0 32 32">

<path d="M16 3.25C13.4783 3.25 11.0132 3.99777 8.91648 5.39876C6.81976 6.79975 5.18556 8.79103 4.22054 11.1208C3.25552 13.4505 3.00303 16.0141 3.49499 18.4874C3.98696 20.9607 5.20127 23.2325 6.98439 25.0156C8.76751 26.7987 11.0393 28.0131 13.5126 28.505C15.9859 28.997 18.5495 28.7445 20.8792 27.7795C23.209 26.8144 25.2003 25.1802 26.6012 23.0835C28.0022 20.9868 28.75 18.5217 28.75 16C28.746 12.6197 27.4015 9.379 25.0112 6.98877C22.621 4.59854 19.3803 3.25397 16 3.25ZM16.75 27.225V18.75H20C20.1989 18.75 20.3897 18.671 20.5303 18.5303C20.671 18.3897 20.75 18.1989 20.75 18C20.75 17.8011 20.671 17.6103 20.5303 17.4697C20.3897 17.329 20.1989 17.25 20 17.25H16.75V14C16.75 13.4033 16.9871 12.831 17.409 12.409C17.831 11.9871 18.4033 11.75 19 11.75H21C21.1989 11.75 21.3897 11.671 21.5303 11.5303C21.671 11.3897 21.75 11.1989 21.75 11C21.75 10.8011 21.671 10.6103 21.5303 10.4697C21.3897 10.329 21.1989 10.25 21 10.25H19C18.0054 10.25 17.0516 10.6451 16.3484 11.3483C15.6451 12.0516 15.25 13.0054 15.25 14V17.25H12C11.8011 17.25 11.6103 17.329 11.4697 17.4697C11.329 17.6103 11.25 17.8011 11.25 18C11.25 18.1989 11.329 18.3897 11.4697 18.5303C11.6103 18.671 11.8011 18.75 12 18.75H15.25V27.225C12.3378 27.0304 9.61517 25.7116 7.65713 23.5471C5.6991 21.3827 4.65892 18.5419 4.75626 15.6248C4.85361 12.7077 6.08086 9.94265 8.17884 7.91351C10.2768 5.88437 13.0813 4.75003 16 4.75003C18.9187 4.75003 21.7232 5.88437 23.8212 7.91351C25.9192 9.94265 27.1464 12.7077 27.2437 15.6248C27.3411 18.5419 26.3009 21.3827 24.3429 23.5471C22.3848 25.7116 19.6622 27.0304 16.75 27.225Z" fill="currentColor"/>

</symbol>
<symbol id="icon-instagram" viewBox="0 0 32 32">

<path d="M16 10.25C14.8628 10.25 13.7511 10.5872 12.8055 11.219C11.8599 11.8509 11.1229 12.7489 10.6877 13.7996C10.2525 14.8502 10.1386 16.0064 10.3605 17.1218C10.5824 18.2372 11.13 19.2617 11.9341 20.0659C12.7383 20.87 13.7628 21.4177 14.8782 21.6395C15.9936 21.8614 17.1498 21.7475 18.2004 21.3123C19.2511 20.8771 20.1491 20.1401 20.781 19.1945C21.4128 18.2489 21.75 17.1372 21.75 16C21.748 14.4756 21.1416 13.0142 20.0637 11.9363C18.9858 10.8584 17.5244 10.252 16 10.25ZM16 20.25C15.1594 20.25 14.3377 20.0007 13.6388 19.5337C12.9399 19.0668 12.3952 18.403 12.0735 17.6264C11.7518 16.8498 11.6677 15.9953 11.8317 15.1709C11.9956 14.3464 12.4004 13.5892 12.9948 12.9948C13.5892 12.4004 14.3464 11.9956 15.1709 11.8317C15.9953 11.6677 16.8498 11.7518 17.6264 12.0735C18.403 12.3952 19.0668 12.9399 19.5337 13.6388C20.0007 14.3377 20.25 15.1594 20.25 16C20.25 17.1272 19.8022 18.2082 19.0052 19.0052C18.2082 19.8022 17.1272 20.25 16 20.25ZM22 3.25H10C8.2104 3.25199 6.49466 3.96378 5.22922 5.22922C3.96378 6.49466 3.25199 8.2104 3.25 10V22C3.25199 23.7896 3.96378 25.5053 5.22922 26.7708C6.49466 28.0362 8.2104 28.748 10 28.75H22C23.7896 28.748 25.5053 28.0362 26.7708 26.7708C28.0362 25.5053 28.748 23.7896 28.75 22V10C28.748 8.2104 28.0362 6.49466 26.7708 5.22922C25.5053 3.96378 23.7896 3.25199 22 3.25ZM27.25 22C27.25 23.3924 26.6969 24.7277 25.7123 25.7123C24.7277 26.6969 23.3924 27.25 22 27.25H10C8.60761 27.25 7.27225 26.6969 6.28769 25.7123C5.30312 24.7277 4.75 23.3924 4.75 22V10C4.75 8.60761 5.30312 7.27225 6.28769 6.28769C7.27225 5.30312 8.60761 4.75 10 4.75H22C23.3924 4.75 24.7277 5.30312 25.7123 6.28769C26.6969 7.27225 27.25 8.60761 27.25 10V22ZM23.75 9.5C23.75 9.74723 23.6767 9.9889 23.5393 10.1945C23.402 10.4 23.2068 10.5602 22.9784 10.6548C22.7499 10.7495 22.4986 10.7742 22.2561 10.726C22.0137 10.6778 21.7909 10.5587 21.6161 10.3839C21.4413 10.2091 21.3223 9.98634 21.274 9.74386C21.2258 9.50139 21.2505 9.25005 21.3451 9.02165C21.4398 8.79324 21.6 8.59801 21.8055 8.46066C22.0111 8.32331 22.2528 8.25 22.5 8.25C22.8315 8.25 23.1495 8.3817 23.3839 8.61612C23.6183 8.85054 23.75 9.16848 23.75 9.5Z" fill="currentColor"/>

</symbol>
<symbol id="icon-linkedin" viewBox="0 0 32 32">

<path d="M27 3.25H5C4.53587 3.25 4.09075 3.43437 3.76256 3.76256C3.43437 4.09075 3.25 4.53587 3.25 5V27C3.25 27.4641 3.43437 27.9092 3.76256 28.2374C4.09075 28.5656 4.53587 28.75 5 28.75H27C27.4641 28.75 27.9092 28.5656 28.2374 28.2374C28.5656 27.9092 28.75 27.4641 28.75 27V5C28.75 4.53587 28.5656 4.09075 28.2374 3.76256C27.9092 3.43437 27.4641 3.25 27 3.25ZM27.25 27C27.25 27.0663 27.2237 27.1299 27.1768 27.1768C27.1299 27.2237 27.0663 27.25 27 27.25H5C4.9337 27.25 4.87011 27.2237 4.82322 27.1768C4.77634 27.1299 4.75 27.0663 4.75 27V5C4.75 4.9337 4.77634 4.87011 4.82322 4.82322C4.87011 4.77634 4.9337 4.75 5 4.75H27C27.0663 4.75 27.1299 4.77634 27.1768 4.82322C27.2237 4.87011 27.25 4.9337 27.25 5V27ZM11.75 14V22C11.75 22.1989 11.671 22.3897 11.5303 22.5303C11.3897 22.671 11.1989 22.75 11 22.75C10.8011 22.75 10.6103 22.671 10.4697 22.5303C10.329 22.3897 10.25 22.1989 10.25 22V14C10.25 13.8011 10.329 13.6103 10.4697 13.4697C10.6103 13.329 10.8011 13.25 11 13.25C11.1989 13.25 11.3897 13.329 11.5303 13.4697C11.671 13.6103 11.75 13.8011 11.75 14ZM22.75 17.5V22C22.75 22.1989 22.671 22.3897 22.5303 22.5303C22.3897 22.671 22.1989 22.75 22 22.75C21.8011 22.75 21.6103 22.671 21.4697 22.5303C21.329 22.3897 21.25 22.1989 21.25 22V17.5C21.25 16.7707 20.9603 16.0712 20.4445 15.5555C19.9288 15.0397 19.2293 14.75 18.5 14.75C17.7707 14.75 17.0712 15.0397 16.5555 15.5555C16.0397 16.0712 15.75 16.7707 15.75 17.5V22C15.75 22.1989 15.671 22.3897 15.5303 22.5303C15.3897 22.671 15.1989 22.75 15 22.75C14.8011 22.75 14.6103 22.671 14.4697 22.5303C14.329 22.3897 14.25 22.1989 14.25 22V14C14.25 13.8011 14.329 13.6103 14.4697 13.4697C14.6103 13.329 14.8011 13.25 15 13.25C15.1989 13.25 15.3897 13.329 15.5303 13.4697C15.671 13.6103 15.75 13.8011 15.75 14V14.2638C16.3681 13.7392 17.1233 13.4024 17.9266 13.293C18.7299 13.1836 19.5476 13.3062 20.2835 13.6464C21.0193 13.9866 21.6425 14.5302 22.0796 15.213C22.5166 15.8958 22.7492 16.6893 22.75 17.5ZM12.25 10.5C12.25 10.7472 12.1767 10.9889 12.0393 11.1945C11.902 11.4 11.7068 11.5602 11.4784 11.6548C11.2499 11.7495 10.9986 11.7742 10.7561 11.726C10.5137 11.6778 10.2909 11.5587 10.1161 11.3839C9.9413 11.2091 9.82225 10.9863 9.77402 10.7439C9.72579 10.5014 9.75054 10.2501 9.84515 10.0216C9.93976 9.79324 10.1 9.59801 10.3055 9.46066C10.5111 9.32331 10.7528 9.25 11 9.25C11.3315 9.25 11.6495 9.3817 11.8839 9.61612C12.1183 9.85054 12.25 10.1685 12.25 10.5Z" fill="currentColor"/>

</symbol>
<symbol id="icon-x" viewBox="0 0 32 32">

<path d="M26.6325 26.5974L18.705 14.1399L26.555 5.4999C26.6313 5.42906 26.6921 5.3431 26.7333 5.2475C26.7746 5.1519 26.7955 5.04875 26.7948 4.94462C26.794 4.8405 26.7715 4.73767 26.7288 4.64269C26.6861 4.54772 26.6241 4.46267 26.5468 4.39297C26.4694 4.32328 26.3784 4.27045 26.2795 4.23787C26.1806 4.20528 26.076 4.19364 25.9723 4.2037C25.8687 4.21376 25.7683 4.24529 25.6775 4.29629C25.5867 4.34728 25.5075 4.41662 25.445 4.4999L17.875 12.8274L12.6375 4.5974C12.5693 4.49024 12.4751 4.40214 12.3636 4.34136C12.2521 4.28058 12.127 4.24911 12 4.2499H6C5.86565 4.24996 5.73378 4.28611 5.61818 4.35457C5.50258 4.42303 5.40749 4.52128 5.34285 4.63906C5.27821 4.75684 5.2464 4.88982 5.25073 5.0241C5.25507 5.15838 5.2954 5.28903 5.3675 5.4024L13.295 17.8599L5.445 26.4999C5.33252 26.6497 5.28019 26.8362 5.29828 27.0226C5.31637 27.2091 5.40359 27.382 5.54277 27.5074C5.68195 27.6328 5.86302 27.7016 6.05035 27.7002C6.23767 27.6988 6.4177 27.6273 6.555 27.4999L14.125 19.1724L19.3625 27.4024C19.4306 27.5096 19.5249 27.5977 19.6364 27.6584C19.7479 27.7192 19.873 27.7507 20 27.7499H26C26.1343 27.7498 26.2662 27.7137 26.3818 27.6452C26.4974 27.5768 26.5925 27.4785 26.6571 27.3607C26.7218 27.243 26.7536 27.11 26.7493 26.9757C26.7449 26.8414 26.7046 26.7108 26.6325 26.5974ZM20.4112 26.2499L7.36625 5.7499H11.5887L24.6337 26.2499H20.4112Z" fill="currentColor"/>

</symbol>
<symbol id="icon-youtube" viewBox="0 0 32 32">

<path d="M20.4163 15.375L14.4163 11.375C14.3032 11.2996 14.1718 11.2563 14.0361 11.2498C13.9004 11.2432 13.7655 11.2737 13.6457 11.3379C13.526 11.402 13.4259 11.4975 13.3562 11.6142C13.2865 11.7308 13.2498 11.8642 13.25 12V20C13.2498 20.1359 13.2865 20.2693 13.3562 20.3859C13.4259 20.5025 13.526 20.598 13.6457 20.6622C13.7655 20.7264 13.9004 20.7568 14.0361 20.7503C14.1718 20.7437 14.3032 20.7004 14.4163 20.625L20.4163 16.625C20.5194 16.5566 20.604 16.4637 20.6625 16.3547C20.721 16.2456 20.7517 16.1238 20.7517 16C20.7517 15.8763 20.721 15.7544 20.6625 15.6454C20.604 15.5363 20.5194 15.4434 20.4163 15.375ZM14.75 18.5988V13.4013L18.6475 16L14.75 18.5988ZM29.05 8.75003C28.9415 8.3284 28.7344 7.93857 28.4458 7.61261C28.1572 7.28664 27.7954 7.03384 27.39 6.87502C23.125 5.22377 16.2837 5.25002 16 5.25002C15.7163 5.25002 8.875 5.22377 4.605 6.87502C4.20057 7.03449 3.83971 7.28757 3.55202 7.6135C3.26434 7.93943 3.05802 8.32892 2.95 8.75003C2.63125 9.98628 2.25 12.25 2.25 16C2.25 19.75 2.63125 22.0138 2.95 23.25C3.05852 23.6716 3.2656 24.0615 3.55419 24.3874C3.84278 24.7134 4.20464 24.9662 4.61 25.125C8.875 26.7763 15.715 26.75 16 26.75H16.0888C16.9525 26.75 23.3388 26.695 27.395 25.125C27.8004 24.9662 28.1622 24.7134 28.4508 24.3874C28.7394 24.0615 28.9465 23.6716 29.055 23.25C29.3738 22.0163 29.755 19.7588 29.755 16C29.755 12.2413 29.375 9.98628 29.05 8.75003ZM27.5975 22.875C27.5494 23.0672 27.4563 23.2451 27.3259 23.3942C27.1955 23.5433 27.0315 23.6592 26.8475 23.7325C22.8475 25.2738 16.0725 25.25 16 25.25C15.9275 25.25 9.16125 25.275 5.15625 23.7288C4.97224 23.6555 4.80828 23.5395 4.67788 23.3904C4.54749 23.2413 4.45439 23.0634 4.40625 22.8713C4.105 21.7225 3.75 19.5975 3.75 16C3.75 12.4025 4.105 10.2775 4.4025 9.12503C4.45064 8.9329 4.54374 8.75496 4.67413 8.60587C4.80453 8.45678 4.96849 8.34081 5.1525 8.26752C9.0075 6.78252 15.4412 6.75002 15.97 6.75002H16C16.0675 6.75002 22.8387 6.72502 26.8438 8.27127C27.0278 8.34456 27.1917 8.46053 27.3221 8.60962C27.4525 8.75871 27.5456 8.93665 27.5938 9.12877C27.8913 10.2775 28.2463 12.4025 28.2463 16.0038C28.2463 19.605 27.895 21.7225 27.5975 22.875Z" fill="currentColor"/>

</symbol>
</svg>